PathFileType	4	(X/Y/Z)	C:/Users/empri/Downloads/Take 2024-05-09 02.19.33 PM.trc
DataRate	CameraRate	NumFrames	NumMarkers	Units	OrigDataRate	OrigDataStartFrame	OrigNumFrames
240	240	48	9	mm	240	210	841
Frame#	Time	C7	CLAV	RELB	RFIN	RFRM	RSHO	RUPA	RWRA	RWRB
X1	Y1	Z1	X2	Y2	Z2	X3	Y3	Z3	X4	Y4	Z4	X5	Y5	Z5	X6	Y6	Z6	X7	Y7	Z7	X8	Y8	Z8	X9	Y9	Z9
210	0.875	-129.131	1541.96	-53.7164	30.6511	1363.79	-143.981	115.557	1172.74	163.692	229.719	874.764	83.3174	139.817	1052.71	193.001	18.9437	1486.56	61.2476	61.1263	1339.58	140.778	173.245	943.041	89.8758	147.286	916.039	177.702
211	0.879	-129.254	1541.98	-53.8562	30.614	1363.81	-143.979	116.531	1174	164.973	232.753	876.405	86.339	141.586	1054.38	194.893	18.7279	1486.8	61.0685	61.2757	1340.4	141.244	175.801	944.36	92.3888	149.643	917.628	180.216
212	0.883	-129.386	1541.99	-53.9983	30.5816	1363.84	-143.989	117.554	1175.31	166.24	235.745	878.053	89.4829	143.114	1055.97	196.837	18.4852	1487.03	60.9241	61.4111	1341.23	141.65	178.404	945.68	94.9289	152.068	919.244	182.765
213	0.888	-129.541	1542.02	-54.1724	30.5232	1363.88	-144.005	118.78	1177.07	167.924	239.611	880.315	93.4919	145.062	1058.09	199.324	18.1641	1487.32	60.7284	61.5832	1342.32	142.162	181.726	947.542	98.1782	155.178	921.381	186.08
214	0.892	-129.663	1542.05	-54.3261	30.4749	1363.9	-144.012	119.828	1178.56	169.273	242.706	882.165	96.8683	146.716	1059.87	201.352	17.8815	1487.58	60.5646	61.7176	1343.2	142.58	184.396	949.089	100.874	157.69	923.183	188.815
215	0.896	-129.817	1542.05	-54.4824	30.412	1363.91	-144.025	120.876	1179.97	170.613	245.846	884.054	100.108	148.373	1061.73	203.416	17.5634	1487.86	60.4361	61.7965	1344.1	143.03	187.108	950.661	103.64	160.223	925.045	191.56
216	0.9	-129.935	1542.05	-54.6253	30.3624	1363.92	-144.036	121.867	1181.52	172.027	249.012	886.032	103.344	150.015	1063.58	205.517	17.2943	1488.11	60.2977	61.906	1345.01	143.492	189.802	952.197	106.459	162.833	926.924	194.378
217	0.904	-130.052	1542.06	-54.7736	30.3142	1363.94	-144.068	122.905	1183.14	173.435	252.234	888.121	106.748	151.738	1065.51	207.591	16.9897	1488.37	60.1466	61.9561	1345.98	143.954	192.577	953.946	109.201	165.461	928.871	197.254
218	0.908	-130.182	1542.1	-54.9287	30.266	1363.97	-144.082	123.946	1184.65	174.807	255.45	890.24	110.267	153.467	1067.5	209.73	16.674	1488.66	59.9918	62.0749	1346.9	144.399	195.36	955.767	111.972	168.094	930.994	200.196
219	0.913	-130.368	1542.13	-55.1313	30.1915	1364	-144.114	125.273	1186.74	176.618	259.521	893.077	114.647	155.665	1070.12	212.419	16.3047	1489.02	59.8151	62.1643	1348.13	145.001	198.92	958.152	115.616	171.431	933.707	203.921
220	0.917	-130.494	1542.15	-55.2976	30.1184	1364.02	-144.123	126.272	1188.46	178.102	262.775	895.356	118.181	157.469	1072.35	214.643	15.9782	1489.33	59.6689	62.1938	1349.12	145.457	201.759	959.959	118.571	174.171	935.854	206.961
221	0.921	-130.636	1542.18	-55.488	30.0561	1364.03	-144.129	127.324	1190.18	179.587	266.02	897.684	121.779	159.233	1074.5	216.876	15.672	1489.63	59.5493	62.2154	1350.2	145.965	204.537	961.887	121.607	176.876	938.189	210.089
222	0.925	-130.776	1542.19	-55.6552	29.9883	1364.06	-144.136	128.383	1191.98	181.107	269.284	900.133	125.33	161.032	1076.78	219.117	15.3679	1489.93	59.4138	62.2776	1351.22	146.441	207.413	963.964	124.68	179.69	940.478	213.292
223	0.929	-130.902	1542.2	-55.831	29.9251	1364.09	-144.15	129.409	1193.79	182.665	272.576	902.682	129.006	162.788	1079.04	221.387	15.0502	1490.23	59.253	62.2685	1352.25	146.928	210.169	966.028	127.82	182.434	942.896	216.466
224	0.933	-131.071	1542.25	-56.0234	29.8663	1364.12	-144.151	130.515	1195.63	184.173	275.871	905.299	132.724	164.508	1081.41	223.72	14.7161	1490.52	59.1073	62.3152	1353.27	147.423	213.011	968.178	130.963	185.227	945.381	219.673
225	0.938	-131.255	1542.3	-56.2764	29.7853	1364.17	-144.154	131.895	1197.98	186.119	279.96	908.601	137.372	166.706	1084.36	226.599	14.324	1490.96	58.9124	62.3612	1354.62	148.081	216.521	970.921	134.912	188.704	948.61	223.781
226	0.942	-131.401	1542.32	-56.4577	29.7198	1364.21	-144.164	132.939	1199.97	187.693	283.24	911.356	141.144	168.435	1086.85	228.981	14.0158	1491.33	58.7044	62.3997	1355.74	148.844	219.324	973.132	138.162	191.529	951.18	227.038
227	0.946	-131.529	1542.35	-56.6355	29.6526	1364.23	-144.164	134.049	1201.92	189.215	286.544	914.159	144.898	170.203	1089.36	231.328	13.7225	1491.66	58.5417	62.4288	1356.84	149.355	222.164	975.421	141.415	194.272	953.937	230.389
228	0.95	-131.658	1542.37	-56.8285	29.5943	1364.27	-144.183	135.128	1203.97	190.794	289.781	917.026	148.747	171.976	1091.96	233.724	13.4254	1491.97	58.3976	62.4987	1357.97	149.883	224.923	977.667	144.65	197.018	956.714	233.715
229	0.954	-131.782	1542.41	-56.9997	29.5261	1364.31	-144.199	136.226	1206.05	192.429	293.06	919.964	152.581	173.767	1094.58	236.105	13.1419	1492.3	58.2385	62.5541	1359.12	150.393	227.734	980.117	147.913	199.785	959.539	237.073
230	0.958	-131.911	1542.44	-57.1879	29.4262	1364.33	-144.209	137.282	1208.15	194.005	296.378	923.09	156.512	175.453	1097.19	238.5	12.8478	1492.66	58.0776	62.5498	1360.31	150.983	230.541	982.593	151.358	202.542	962.398	240.458
231	0.963	-132.091	1542.48	-57.4147	29.3442	1364.39	-144.227	138.593	1210.8	195.958	300.501	927	161.407	177.588	1100.59	241.459	12.4752	1493.17	57.8811	62.6361	1361.77	151.605	234.07	985.828	155.523	205.96	966.135	244.701
232	0.967	-132.247	1542.49	-57.6088	29.2817	1364.42	-144.241	139.622	1212.96	197.526	303.753	930.154	165.358	179.325	1103.34	243.886	12.1922	1493.55	57.7145	62.6766	1363.01	152.076	236.921	988.453	158.799	208.621	969.182	248.138
233	0.971	-132.383	1542.52	-57.7832	29.2158	1364.45	-144.25	140.657	1215.11	199.127	307.079	933.514	169.361	181.014	1106.13	246.325	11.9064	1493.91	57.5352	62.7237	1364.2	152.659	239.729	991.139	162.186	211.304	972.235	251.489
234	0.975	-132.519	1542.54	-57.9524	29.1628	1364.48	-144.26	141.613	1217.31	200.707	310.323	936.818	173.379	182.605	1108.93	248.704	11.6185	1494.25	57.3529	62.7598	1365.46	153.137	242.506	993.828	165.591	213.919	975.381	254.949
235	0.979	-132.66	1542.54	-58.1249	29.1048	1364.5	-144.279	142.57	1219.54	202.319	313.598	940.245	177.383	184.211	1111.78	251.075	11.3175	1494.63	57.1726	62.8134	1366.69	153.64	245.36	996.659	168.987	216.553	978.51	258.327
236	0.983	-132.824	1542.56	-58.2897	29.0628	1364.54	-144.302	143.562	1221.83	203.884	316.879	943.756	181.502	185.869	1114.69	253.475	11.0358	1495.01	56.9858	62.837	1367.96	154.143	248.182	999.571	172.436	219.172	981.746	261.741
237	0.987	-133.026	1542.58	-58.4751	29.0008	1364.6	-144.325	144.55	1224.12	205.482	320.14	947.329	185.581	187.469	1117.65	255.901	10.7632	1495.44	56.7732	62.9322	1369.22	154.698	250.999	1002.55	175.827	221.716	985.004	265.084
238	0.992	-133.212	1542.62	-58.7228	28.9287	1364.66	-144.362	145.794	1227.04	207.451	324.223	951.975	190.667	189.464	1121.35	258.888	10.4218	1495.92	56.4567	62.9316	1370.85	155.352	254.54	1006.3	180.101	224.913	989.185	269.382
239	0.996	-133.351	1542.63	-58.9037	28.8716	1364.7	-144.387	146.722	1229.39	209.042	327.426	955.751	194.775	191.008	1124.41	261.313	10.1195	1496.29	56.2656	62.9203	1372.16	155.797	257.389	1009.4	183.541	227.417	992.51	272.764
240	1	-133.479	1542.66	-59.1139	28.8118	1364.75	-144.432	147.664	1231.73	210.616	330.633	959.494	198.935	192.547	1127.51	263.715	9.81412	1496.68	56.0717	62.9457	1373.44	156.332	260.14	1012.52	186.941	229.919	995.981	276.175
241	1.004	-133.607	1542.69	-59.2829	28.7585	1364.81	-144.466	148.556	1234.14	212.214	333.846	963.386	203.065	194.026	1130.65	266.249	9.50026	1497.08	55.8577	62.9242	1374.73	156.784	262.921	1015.67	190.417	232.385	999.466	279.551
242	1.008	-133.749	1542.74	-59.4567	28.7201	1364.86	-144.498	149.498	1236.61	213.718	337.026	967.413	207.181	195.51	1133.73	268.626	9.21812	1497.48	55.653	62.9262	1376.09	157.277	265.671	1018.96	193.824	234.801	1003.01	282.861
243	1.012	-133.882	1542.79	-59.6115	28.6605	1364.93	-144.524	150.418	1239.03	215.325	340.15	971.411	211.31	196.98	1136.97	271.053	8.93132	1497.87	55.445	62.925	1377.36	157.778	268.455	1022.26	197.326	237.258	1006.56	286.214
244	1.017	-134.035	1542.83	-59.8273	28.572	1364.97	-144.541	151.519	1242.14	217.257	344.05	976.495	216.516	198.857	1140.97	274.029	8.48527	1498.4	55.225	62.7854	1379.14	158.456	271.84	1026.43	201.578	240.248	1011.17	290.451
245	1.021	-134.171	1542.85	-59.999	28.5069	1365.02	-144.553	152.396	1244.67	218.825	347.102	980.724	220.634	200.338	1144.3	276.415	8.17229	1498.82	55.0459	62.7696	1380.42	158.934	274.532	1029.92	205.044	242.672	1014.78	293.796
246	1.025	-134.29	1542.88	-60.1671	28.4531	1365.07	-144.561	153.204	1247.2	220.304	350.132	984.928	224.74	201.753	1147.64	278.764	7.87857	1499.23	54.8694	62.6406	1381.75	159.408	277.29	1033.39	208.412	244.962	1018.58	297.195
247	1.029	-134.433	1542.9	-60.3454	28.4103	1365.11	-144.554	153.988	1249.74	221.84	353.143	989.315	228.826	203.245	1151.03	281.172	7.63259	1499.65	54.6464	62.5981	1383.03	159.893	279.912	1036.95	211.758	247.239	1022.37	300.509
248	1.033	-134.579	1542.89	-60.5328	28.3704	1365.17	-144.563	154.697	1252.29	223.392	356.15	993.674	232.928	204.577	1154.47	283.487	7.30242	1500.11	54.3971	62.4812	1384.33	160.391	282.545	1040.64	215.156	249.485	1026.2	303.839
249	1.038	-134.795	1542.95	-60.767	28.3248	1365.25	-144.557	155.68	1255.59	225.273	359.783	999.218	238.049	206.162	1158.7	286.447	6.87665	1500.65	54.1406	62.3085	1385.99	161.01	285.814	1045.16	219.328	252.307	1031.05	307.974
250	1.042	-134.931	1542.99	-60.9565	28.2818	1365.31	-144.547	156.395	1258.18	226.748	362.675	1003.67	242.129	207.396	1162.19	288.75	6.54283	1501.04	53.9697	62.2038	1387.29	161.479	288.347	1048.92	222.743	254.513	1034.99	311.298
251	1.046	-135.097	1543.02	-61.1203	28.2419	1365.38	-144.535	157.036	1260.9	228.266	365.483	1008.21	246.104	208.683	1165.64	290.979	6.23163	1501.45	53.7857	62.0667	1388.61	161.975	290.865	1052.67	226.102	256.628	1038.97	314.582
252	1.05	-135.236	1543.05	-61.3061	28.2107	1365.44	-144.531	157.68	1263.58	229.776	368.239	1012.81	250.116	209.909	1169.2	293.295	5.94943	1501.89	53.5741	61.9854	1389.98	162.422	293.3	1056.41	229.474	258.758	1043.08	317.938
253	1.054	-135.36	1543.09	-61.4757	28.1987	1365.51	-144.529	158.298	1266.24	231.301	370.91	1017.4	254.081	211.103	1172.74	295.734	5.55433	1502.35	53.4004	61.8244	1391.26	162.887	295.759	1060.34	232.733	260.831	1047.18	321.238
254	1.058	-135.479	1543.12	-61.6674	28.1774	1365.59	-144.53	158.994	1268.98	232.631	373.57	1022.13	258.009	212.288	1176.29	297.922	5.21664	1502.77	53.1897	61.666	1392.63	163.349	298.161	1064.19	236.037	262.884	1051.33	324.386
255	1.063	-135.631	1543.16	-61.8866	28.1608	1365.7	-144.503	159.757	1272.42	234.438	376.832	1028.09	262.891	213.839	1180.66	300.51	4.84712	1503.28	52.9283	61.4368	1394.3	163.926	301.057	1069.14	240.122	265.427	1056.61	328.466
256	1.067	-135.745	1543.19	-62.0594	28.139	1365.78	-144.499	160.345	1275.19	235.911	379.383	1032.93	266.745	214.899	1184.26	302.619	4.54816	1503.74	52.7202	61.2801	1395.64	164.341	303.365	1073.13	243.422	267.449	1060.83	331.614
257	1.071	-135.855	1543.22	-62.2291	28.1109	1365.85	-144.481	161.004	1278.04	237.166	381.877	1037.77	270.582	216.016	1187.86	304.74	4.21569	1504.22	52.4936	61.1336	1396.99	164.763	305.606	1077.12	246.62	269.345	1065.08	334.811
